<svg width="100" height="29" viewBox="0 0 100 29" fill="none" xmlns="http://www.w3.org/2000/svg">
<mask id="mask0_759_13" style="mask-type:alpha" maskUnits="userSpaceOnUse" x="0" y="0" width="100" height="27">
<path d="M100 15H0V27H100V15Z" fill="#D9D9D9"/>
<path d="M100 0H0V13H100V0Z" fill="#D9D9D9"/>
</mask>
<g mask="url(#mask0_759_13)">
<path d="M0.90567 26.4151V0.754712H9.69812L15.8868 21.8868H16.2642V0.754712H21.4717V26.4151H12.9057L6.49058 5.28301H6.11322V26.4151H0.90567ZM27.0702 26.4151V0.754712H43.674V5.28301H32.2777V11.283H41.4098V15.7358H32.2777V21.8868H43.674V26.4151H27.0702ZM45.8894 0.754712H51.3611L54.531 21.9623H55.097L59.7008 0.754712H65.7385L70.3423 21.9623H70.9083L74.0781 0.754712H79.5498L74.6442 26.4151H66.7574L62.7196 6.90566L58.6819 26.4151H50.7951L45.8894 0.754712ZM90.9343 4.83018C88.1921 4.83018 86.8211 5.73584 86.8211 7.54717C86.8211 8.3522 87.1608 8.96854 87.84 9.39622C88.5192 9.8239 90.1042 10.4402 92.5947 11.2453C95.1104 12.0503 96.8713 12.9685 97.8777 14C98.884 15.0063 99.3872 16.566 99.3872 18.6792C99.3872 21.3711 98.5694 23.4089 96.9343 24.7924C95.2991 26.176 93.1608 26.8679 90.5193 26.8679C88.557 26.8679 86.1543 26.566 83.3117 25.9623L81.9532 25.6981L82.4815 21.6604C85.8525 22.1132 88.4311 22.3396 90.2174 22.3396C92.884 22.3396 94.2174 21.2326 94.2174 19.0189C94.2174 18.2138 93.9028 17.5849 93.274 17.1321C92.6702 16.6792 91.45 16.1887 89.6136 15.6604C86.6953 14.8302 84.6325 13.8491 83.4249 12.717C82.2425 11.5597 81.6513 9.96226 81.6513 7.92452C81.6513 5.35849 82.4311 3.44654 83.991 2.18867C85.5506 0.930812 87.6891 0.30188 90.406 0.30188C92.2676 0.30188 94.6325 0.553453 97.5004 1.0566L98.8589 1.32075L98.4438 5.43396C94.8966 5.03145 92.3934 4.83018 90.9343 4.83018Z" fill="url(#paint0_linear_759_13)"/>
</g>
<defs>
<linearGradient id="paint0_linear_759_13" x1="44" y1="12.5" x2="44" y2="27" gradientUnits="userSpaceOnUse">
<stop stop-color="#E83C38"/>
<stop offset="1" stop-color="#302D38"/>
</linearGradient>
</defs>
</svg>
